<svg xmlns="http://www.w3.org/2000/svg" viewBox="0 0 12.002 12.004"><g transform="translate(-1411 -172.998)"><path d="M23064-15933v-3.179a3.076,3.076,0,0,0,1,.18,3.111,3.111,0,0,0,1-.18v3.179Zm2.287-3.3a2.985,2.985,0,0,0,1.412-1.412l2.248,2.252-1.408,1.413Zm-6.236.84,2.246-2.252a3,3,0,0,0,1.414,1.412l-2.252,2.253Zm7.766-2.542a2.773,2.773,0,0,0,0-2H23071v2Zm-8.818,0v-2h3.178a3.109,3.109,0,0,0-.18,1,3.1,3.1,0,0,0,.18,1Zm7.289-3.7,2.252-2.246,1.408,1.407-2.248,2.252A2.992,2.992,0,0,0,23066.289-15941.7Zm-6.236-.839,1.408-1.407,2.252,2.246a3,3,0,0,0-1.414,1.413Zm4.945.538a2.909,2.909,0,0,0-1,.186V-15945h2v3.185A2.942,2.942,0,0,0,23065-15942Z" transform="translate(-21648 16118)"/></g></svg>
